<svg width="21" height="24" viewBox="0 0 21 24" fill="none" xmlns="http://www.w3.org/2000/svg">
<path d="M3.04232 6.81111C2.97689 6.88168 2.92128 7.01462 2.92128 7.1131V14.5906C2.92128 14.6841 2.97689 14.7087 3.04395 14.6414L5.99304 11.6971C6.0601 11.6298 6.11243 11.4952 6.11243 11.4V7.1131C6.11243 7.01462 6.16968 6.88168 6.23511 6.81111L9.67815 3.17907C9.74194 3.10849 9.79755 2.97391 9.79755 2.882V0.049237L9.67651 0L3.04068 6.80947" fill="#009046"/>
<path d="M9.78284 6.9375H6.71764V9.87366H9.78284V6.9375Z" fill="#009046"/>
<path d="M17.1907 0.0491943L14.2956 2.92956C14.2269 2.99685 14.1729 3.13143 14.1729 3.22662V6.76348C14.1729 6.85867 14.096 6.93745 14.0012 6.93745H13.7476C13.6528 6.93745 13.5759 6.85867 13.5759 6.76348V3.22662C13.5759 3.13143 13.5187 2.99685 13.4516 2.92956L10.5581 0.0491943H10.3848V11.3983C10.3848 11.4935 10.4404 11.6281 10.5074 11.6954L13.45 14.6397C13.517 14.7038 13.5743 14.6824 13.5743 14.5889V10.0574C13.5743 9.9606 13.6511 9.8851 13.746 9.8851H13.9979C14.0911 9.8851 14.1713 9.9606 14.1713 10.0574V14.5889C14.1713 14.6824 14.2253 14.707 14.294 14.6397L17.2398 11.6954C17.3085 11.6281 17.3657 11.4935 17.3657 11.3983V0.0491943H17.189" fill="#009046"/>
<path d="M20.2919 16.665H0V16.8571H20.2919V16.665Z" fill="black"/>
<path d="M0.824223 21.5641L0.00476074 23.55H0.667207L0.789881 23.2184H1.62242L1.73856 23.55H2.48605L1.66822 21.5641H0.82586M0.959985 22.7835L1.21678 22.0876L1.46377 22.7835H0.959985Z" fill="black"/>
<path d="M3.40708 21.5641H2.73155V23.5483H4.14638V23.0642H3.40708V21.5641Z" fill="black"/>
<path d="M5.82455 22.2977H5.10977V21.5641H4.43425V23.5483H5.10977V22.7819H5.82455V23.5483H6.50008V21.5641H5.82455V22.2977Z" fill="black"/>
<path d="M7.51907 21.5641L6.70125 23.55H7.36369L7.48637 23.2184H8.31891L8.43504 23.55H9.17762L8.36307 21.5641H7.52071M7.64993 22.7835L7.91 22.0876L8.16025 22.7835H7.64993Z" fill="black"/>
<path d="M11.1437 22.6654C11.0505 22.5899 10.9441 22.5505 10.8247 22.5456V22.539C10.9343 22.5078 11.0259 22.457 11.1012 22.3831C11.1748 22.3175 11.2108 22.2141 11.2108 22.0795C11.2173 21.7365 10.9834 21.5658 10.5074 21.5625H9.38864V23.5484H10.599C10.7691 23.5484 10.8934 23.5369 10.9752 23.5106L11.0848 23.463L11.1633 23.3925C11.2435 23.3153 11.2811 23.1922 11.2844 23.0363C11.2811 22.8689 11.2337 22.7425 11.1453 22.6638M10.0625 21.9285H10.2784L10.4207 21.94L10.5074 21.9843C10.545 22.022 10.5614 22.0778 10.5598 22.1468C10.5598 22.2124 10.5401 22.2649 10.4993 22.306C10.4584 22.3454 10.3831 22.3651 10.2801 22.3651H10.0625V21.9285ZM10.5467 23.1348C10.4927 23.1742 10.4044 23.1922 10.2801 23.1922H10.0625V22.7179H10.2801C10.4044 22.7179 10.4943 22.7327 10.5467 22.7721C10.599 22.8098 10.6236 22.8738 10.6236 22.9559C10.6236 23.038 10.6007 23.0971 10.5467 23.1348Z" fill="black"/>
<path d="M11.4773 22.045H12.0073V23.5483H12.6779V22.045H13.2078V21.5641H11.4773V22.045Z" fill="black"/>
<path d="M14.4493 21.5132C14.2432 21.5132 14.0862 21.5312 13.97 21.5706C13.8523 21.6067 13.7574 21.6609 13.6822 21.7315C13.481 21.8939 13.3779 22.168 13.373 22.5554C13.3714 22.8574 13.4499 23.1052 13.6135 23.3005C13.7819 23.4974 14.06 23.5975 14.4477 23.6008C14.8566 23.5975 15.1428 23.4794 15.3096 23.2578C15.447 23.0986 15.5174 22.8639 15.519 22.5586C15.519 22.2517 15.4405 22.0039 15.2786 21.8119C15.115 21.6149 14.8369 21.5165 14.4477 21.5132M14.4477 23.1479C14.3315 23.1479 14.2399 23.1003 14.1712 23.0018C14.0993 22.9066 14.0616 22.7589 14.0616 22.557C14.0616 22.3551 14.0993 22.2009 14.1712 22.1057C14.2416 22.0088 14.3315 21.9612 14.4477 21.9612C14.6914 21.9612 14.8206 22.1582 14.8288 22.557C14.8206 22.9558 14.6914 23.1511 14.4477 23.1479Z" fill="black"/>
<path d="M16.8848 21.5132C16.682 21.5132 16.5233 21.5312 16.4072 21.5706C16.2911 21.6067 16.1913 21.6609 16.121 21.7315C15.9182 21.8939 15.8151 22.168 15.8135 22.5554C15.8086 22.8574 15.8903 23.1052 16.0572 23.3005C16.2224 23.4974 16.4988 23.5975 16.8848 23.6008C17.2954 23.5975 17.5816 23.4794 17.7484 23.2578C17.8891 23.0986 17.9562 22.8639 17.9594 22.5586C17.9594 22.2517 17.8826 22.0039 17.719 21.8119C17.5538 21.6149 17.2757 21.5165 16.8848 21.5132ZM16.8848 23.1479C16.772 23.1479 16.682 23.1003 16.6117 23.0018C16.5364 22.9066 16.4988 22.7589 16.4988 22.557C16.4988 22.3551 16.5364 22.2009 16.6117 22.1057C16.682 22.0088 16.772 21.9612 16.8848 21.9612C17.1334 21.9612 17.2643 22.1582 17.2725 22.557C17.2643 22.9558 17.1334 23.1511 16.8848 23.1479Z" fill="black"/>
<path d="M20.1953 22.8837C20.1823 22.782 20.143 22.713 20.089 22.6704C20.0318 22.6293 19.9647 22.6096 19.8846 22.6096V22.5817C19.9876 22.5604 20.071 22.5079 20.1332 22.4275C20.2002 22.3487 20.2313 22.2404 20.2313 22.114C20.2313 21.8941 20.1675 21.7513 20.0367 21.6709C19.9124 21.5954 19.7308 21.5609 19.5067 21.5642H18.3405V23.5501H19.016V22.8296H19.227C19.3448 22.8279 19.4184 22.8427 19.456 22.8755C19.4953 22.9083 19.5182 22.9904 19.5264 23.1069L19.5869 23.5501H20.282L20.197 22.8854M19.4953 22.3914C19.4446 22.4307 19.3775 22.4439 19.2957 22.4439H19.0177V21.963H19.2827C19.4724 21.963 19.5705 22.0385 19.5705 22.201C19.5705 22.2929 19.5444 22.3553 19.4969 22.3897" fill="black"/>
<path d="M1.30852 20.7682C1.41484 20.696 1.46881 20.5942 1.48026 20.4629V18.8282H0.809649V20.2775C0.809649 20.3513 0.752393 20.3891 0.678789 20.3891L0 20.3923V20.8732H0.861991C1.0321 20.8732 1.19729 20.8404 1.30688 20.7698" fill="black"/>
<path d="M20.2886 18.0978H19.6114V20.0935H20.2886V18.0978Z" fill="black"/>
<path d="M3.38903 20.5072V20.0936H18.7363C19.1829 20.0936 19.3235 19.9524 19.3235 19.6652V18.0962H18.6464V19.4551L18.5973 19.5996H17.6666V19.1679C17.6666 18.9184 17.4834 18.7954 17.1187 18.7921H16.0571V19.2762H16.9944C17.0614 19.2762 17.1138 19.3288 17.1138 19.3977V19.5996H13.481V18.8265H12.8055V19.5996H8.95188V18.8265H8.27472V19.5996H3.3874C3.39067 19.5159 3.39067 18.8462 3.3874 18.8265H2.33077C2.16721 18.8167 2.02981 18.861 1.9284 18.9513C1.82699 19.0497 1.77628 19.268 1.77301 19.4994C1.77628 19.7112 1.82536 19.8654 1.92186 19.9557C2.02 20.046 2.14431 20.0903 2.29969 20.0936H2.83456V20.279C2.83456 20.3463 2.78057 20.3874 2.71351 20.3874H1.77465V20.8715H2.83782C3.20257 20.8781 3.38903 20.755 3.38903 20.5072ZM2.83782 19.7177H2.71024C2.60066 19.7177 2.52051 19.6997 2.47307 19.6652C2.42891 19.6291 2.40764 19.5635 2.40764 19.4797C2.40764 19.4059 2.42564 19.3485 2.45999 19.3091C2.49597 19.2697 2.55813 19.2533 2.64809 19.2533H2.83618V19.7177H2.83782Z" fill="black"/>
<path d="M13.4794 20.3184H12.8038V20.8206H13.4794V20.3184Z" fill="black"/>
<path d="M8.49557 18.1028H7.81841V18.6034H8.49557V18.1028Z" fill="black"/>
<path d="M9.3935 18.1028H8.71634V18.6034H9.3935V18.1028Z" fill="black"/>
</svg>
