<svg width="46" height="53" viewBox="0 0 46 53" fill="none" xmlns="http://www.w3.org/2000/svg">
<path d="M6.77987 15.1788C6.63406 15.3361 6.51013 15.6323 6.51013 15.8518V32.5156C6.51013 32.7241 6.63407 32.7789 6.78351 32.629L13.3556 26.0673C13.5051 25.9174 13.6217 25.6174 13.6217 25.4053V15.8518C13.6217 15.6323 13.7493 15.3361 13.8951 15.1788L21.5681 7.08466C21.7102 6.92739 21.8341 6.62747 21.8341 6.42265V0.109726L21.5644 0L6.77622 15.1752" fill="#009046"/>
<path d="M21.8014 15.4604H14.9704V22.0038H21.8014V15.4604Z" fill="#009046"/>
<path d="M38.31 0.109741L31.8582 6.52873C31.7051 6.67869 31.5848 6.97861 31.5848 7.19075V15.0728C31.5848 15.2849 31.4135 15.4605 31.2021 15.4605H30.6371C30.4257 15.4605 30.2544 15.2849 30.2544 15.0728V7.19075C30.2544 6.97861 30.1268 6.67869 29.9773 6.52873L23.5291 0.109741H23.1428V25.4017C23.1428 25.6138 23.2667 25.9137 23.4161 26.0637L29.9737 32.6253C30.1231 32.768 30.2507 32.7204 30.2507 32.5119V22.4135C30.2507 22.1977 30.422 22.0294 30.6334 22.0294H31.1948C31.4026 22.0294 31.5812 22.1977 31.5812 22.4135V32.5119C31.5812 32.7204 31.7015 32.7753 31.8546 32.6253L38.4194 26.0637C38.5725 25.9137 38.7001 25.6138 38.7001 25.4017V0.109741H38.3064" fill="#009046"/>
<path d="M45.2211 37.1387H-3.05176e-05V37.5666H45.2211V37.1387Z" fill="black"/>
<path d="M1.83682 48.0565L0.0106201 52.4821H1.48691L1.76029 51.7433H3.61563L3.87444 52.4821H5.54026L3.71771 48.0565H1.84047M2.13937 50.7741L2.71166 49.2233L3.26207 50.7741H2.13937Z" fill="black"/>
<path d="M7.59274 48.0565H6.08731V52.4785H9.24031V51.3995H7.59274V48.0565Z" fill="black"/>
<path d="M12.9802 49.6914H11.3873V48.0565H9.88187V52.4785H11.3873V50.7704H12.9802V52.4785H14.4856V48.0565H12.9802V49.6914Z" fill="black"/>
<path d="M16.7565 48.0565L14.934 52.4821H16.4102L16.6836 51.7433H18.539L18.7978 52.4821H20.4527L18.6374 48.0565H16.7602M17.0481 50.7741L17.6277 49.2233L18.1854 50.7741H17.0481Z" fill="black"/>
<path d="M24.8341 50.5107C24.6263 50.3425 24.3894 50.2547 24.1233 50.2437V50.2291C24.3675 50.1596 24.5716 50.0462 24.7393 49.8816C24.9033 49.7353 24.9835 49.5049 24.9835 49.205C24.9981 48.4406 24.4768 48.0602 23.4161 48.0529H20.9229V52.4785H23.6202C23.9993 52.4785 24.2764 52.4529 24.4586 52.3944L24.7028 52.2883L24.8778 52.131C25.0564 51.9591 25.1402 51.6848 25.1475 51.3373C25.1402 50.9643 25.0345 50.6826 24.8377 50.5071M22.4247 48.8685H22.9058L23.2229 48.8941L23.4161 48.9928C23.5 49.077 23.5364 49.2013 23.5328 49.3549C23.5328 49.5012 23.489 49.6183 23.3979 49.7097C23.3068 49.7975 23.1391 49.8414 22.9094 49.8414H22.4247V48.8685ZM23.5036 51.5568C23.3833 51.6446 23.1865 51.6848 22.9094 51.6848H22.4247V50.6278H22.9094C23.1865 50.6278 23.3869 50.6607 23.5036 50.7485C23.6202 50.8326 23.6749 50.9752 23.6749 51.1581C23.6749 51.341 23.6239 51.4727 23.5036 51.5568Z" fill="black"/>
<path d="M25.5777 49.1282H26.7587V52.4785H28.2532V49.1282H29.4342V48.0565H25.5777V49.1282Z" fill="black"/>
<path d="M32.2008 47.9431C31.7415 47.9431 31.3916 47.9834 31.1328 48.0711C30.8703 48.1516 30.6589 48.2723 30.4912 48.4296C30.0429 48.7917 29.8133 49.4025 29.8023 50.2657C29.7987 50.9386 29.9736 51.4909 30.3382 51.9262C30.7136 52.3651 31.3333 52.5882 32.1972 52.5955C33.1084 52.5882 33.7463 52.3249 34.1181 51.8311C34.4243 51.4763 34.5811 50.9533 34.5847 50.273C34.5847 49.589 34.4097 49.0367 34.0489 48.6088C33.6844 48.1699 33.0647 47.9504 32.1972 47.9431M32.1972 51.586C31.9384 51.586 31.7342 51.48 31.5811 51.2605C31.4208 51.0484 31.3369 50.7192 31.3369 50.2693C31.3369 49.8194 31.4208 49.4756 31.5811 49.2635C31.7379 49.0477 31.9384 48.9416 32.1972 48.9416C32.7403 48.9416 33.0282 49.3805 33.0465 50.2693C33.0282 51.1581 32.7403 51.5933 32.1972 51.586Z" fill="black"/>
<path d="M37.6284 47.9431C37.1764 47.9431 36.8228 47.9834 36.564 48.0711C36.3052 48.1516 36.0829 48.2723 35.9261 48.4296C35.4741 48.7917 35.2445 49.4025 35.2409 50.2657C35.2299 50.9386 35.4122 51.4909 35.784 51.9262C36.1521 52.3651 36.7681 52.5882 37.6284 52.5955C38.5433 52.5882 39.1812 52.3249 39.553 51.8311C39.8665 51.4763 40.0159 50.9533 40.0232 50.273C40.0232 49.589 39.8519 49.0367 39.4874 48.6088C39.1193 48.1699 38.4996 47.9504 37.6284 47.9431ZM37.6284 51.586C37.3769 51.586 37.1764 51.48 37.0197 51.2605C36.852 51.0484 36.7682 50.7192 36.7682 50.2693C36.7682 49.8194 36.852 49.4756 37.0197 49.2635C37.1764 49.0477 37.3769 48.9416 37.6284 48.9416C38.1824 48.9416 38.4741 49.3805 38.4923 50.2693C38.4741 51.1581 38.1824 51.5933 37.6284 51.586Z" fill="black"/>
<path d="M45.0061 50.9972C44.9769 50.7704 44.8894 50.6168 44.7691 50.5217C44.6416 50.4303 44.4921 50.3864 44.3135 50.3864V50.3242C44.5431 50.2766 44.729 50.1596 44.8675 49.9804C45.017 49.8048 45.0863 49.5634 45.0863 49.2818C45.0863 48.7917 44.9441 48.4735 44.6525 48.2942C44.3755 48.126 43.9709 48.0492 43.4715 48.0565H40.8725V52.4821H42.378V50.8765H42.8482C43.1106 50.8728 43.2747 50.9057 43.3585 50.9789C43.446 51.052 43.497 51.2349 43.5152 51.4946L43.6501 52.4821H45.1993L45.0097 51.0008M43.446 49.8999C43.333 49.9877 43.1835 50.017 43.0013 50.017H42.3816V48.9453H42.9721C43.3949 48.9453 43.6136 49.1135 43.6136 49.4756C43.6136 49.6805 43.5553 49.8194 43.4496 49.8963" fill="black"/>
<path d="M2.91605 46.2826C3.15299 46.1216 3.27327 45.8949 3.29878 45.6023V41.9594H1.8043V45.189C1.8043 45.3536 1.6767 45.4377 1.51267 45.4377L-3.05176e-05 45.445V46.5167H1.92095C2.30004 46.5167 2.66818 46.4435 2.9124 46.2862" fill="black"/>
<path d="M45.2139 40.3318H43.7048V44.7794H45.2139V40.3318Z" fill="black"/>
<path d="M7.55263 45.7011V44.7794H41.7547C42.7498 44.7794 43.0633 44.4648 43.0633 43.8247V40.3281H41.5542V43.3566L41.4448 43.6784H39.3708V42.7165C39.3708 42.1606 38.9625 41.8862 38.1496 41.8789H35.784V42.9579H37.8726C38.0221 42.9579 38.1387 43.0749 38.1387 43.2286V43.6784H30.0429V41.9557H28.5375V43.6784H19.9496V41.9557H18.4406V43.6784H7.54898C7.55627 43.4919 7.55627 41.9996 7.54898 41.9557H5.19426C4.82975 41.9338 4.52355 42.0325 4.29755 42.2337C4.07156 42.4532 3.95855 42.9396 3.95126 43.4553C3.95855 43.9272 4.06792 44.271 4.28298 44.4721C4.50169 44.6733 4.77871 44.772 5.125 44.7794H6.31696V45.1927C6.31696 45.3426 6.19665 45.4341 6.0472 45.4341H3.95491V46.513H6.32423C7.13709 46.5277 7.55263 46.2533 7.55263 45.7011ZM6.32423 43.9418H6.03992C5.7957 43.9418 5.61709 43.9015 5.51138 43.8247C5.41296 43.7443 5.36557 43.598 5.36557 43.4114C5.36557 43.2468 5.40566 43.1188 5.48221 43.0311C5.5624 42.9433 5.70093 42.9067 5.90141 42.9067H6.32058V43.9418H6.32423Z" fill="black"/>
<path d="M30.0393 45.2804H28.5338V46.3996H30.0393V45.2804Z" fill="black"/>
<path d="M18.9327 40.3428H17.4236V41.4583H18.9327V40.3428Z" fill="black"/>
<path d="M20.9338 40.3428H19.4247V41.4583H20.9338V40.3428Z" fill="black"/>
</svg>
