<svg width="195" height="17" viewBox="0 0 195 17" fill="none" xmlns="http://www.w3.org/2000/svg">
<path d="M162.967 1.36133L159.424 8.44687C160.214 9.25371 161.201 10.3992 162.028 11.6809C162.841 12.9459 163.492 14.3271 163.591 15.6387H172.566L172.055 1.36133H162.967ZM163.445 2.125H171.082L171.348 8.5H160.457L163.445 2.125ZM166.327 2.72232L161.646 7.8625L169.266 2.72232H166.327ZM169.156 9.26367H171.281V9.86133H169.156V9.26367Z" fill="black"/>
<path opacity="0.9" d="M188.23 5.56H184.72V7.84C184.873 7.62667 185.1 7.45333 185.4 7.32C185.7 7.18 186.023 7.11 186.37 7.11C186.923 7.11 187.373 7.22667 187.72 7.46C188.067 7.68667 188.313 7.98333 188.46 8.35C188.613 8.71 188.69 9.09333 188.69 9.5C188.69 9.98 188.6 10.41 188.42 10.79C188.24 11.17 187.963 11.47 187.59 11.69C187.223 11.91 186.767 12.02 186.22 12.02C185.52 12.02 184.953 11.84 184.52 11.48C184.087 11.12 183.823 10.64 183.73 10.04H184.62C184.707 10.42 184.89 10.7167 185.17 10.93C185.45 11.1433 185.803 11.25 186.23 11.25C186.757 11.25 187.153 11.0933 187.42 10.78C187.687 10.46 187.82 10.04 187.82 9.52C187.82 9 187.687 8.6 187.42 8.32C187.153 8.03333 186.76 7.89 186.24 7.89C185.887 7.89 185.577 7.97667 185.31 8.15C185.05 8.31667 184.86 8.54667 184.74 8.84H183.88V4.76H188.23V5.56ZM190.139 12.06C189.966 12.06 189.819 12 189.699 11.88C189.579 11.76 189.519 11.6133 189.519 11.44C189.519 11.2667 189.579 11.12 189.699 11C189.819 10.88 189.966 10.82 190.139 10.82C190.306 10.82 190.446 10.88 190.559 11C190.679 11.12 190.739 11.2667 190.739 11.44C190.739 11.6133 190.679 11.76 190.559 11.88C190.446 12 190.306 12.06 190.139 12.06ZM192.039 12.06C191.866 12.06 191.719 12 191.599 11.88C191.479 11.76 191.419 11.6133 191.419 11.44C191.419 11.2667 191.479 11.12 191.599 11C191.719 10.88 191.866 10.82 192.039 10.82C192.206 10.82 192.346 10.88 192.459 11C192.579 11.12 192.639 11.2667 192.639 11.44C192.639 11.6133 192.579 11.76 192.459 11.88C192.346 12 192.206 12.06 192.039 12.06ZM193.939 12.06C193.765 12.06 193.619 12 193.499 11.88C193.379 11.76 193.319 11.6133 193.319 11.44C193.319 11.2667 193.379 11.12 193.499 11C193.619 10.88 193.765 10.82 193.939 10.82C194.105 10.82 194.245 10.88 194.359 11C194.479 11.12 194.539 11.2667 194.539 11.44C194.539 11.6133 194.479 11.76 194.359 11.88C194.245 12 194.105 12.06 193.939 12.06Z" fill="black"/>
<path d="M79.4905 15.0001C79.2197 15.0001 79.0002 14.7765 79.0002 14.5007C79.0002 14.1684 79.0002 13.79 79.0002 13.7719C79.0002 13.1596 78.9996 12.5475 79.0005 11.9352C79.001 11.6656 79.1438 11.4613 79.3787 11.3987C79.4395 11.3824 79.5049 11.3784 79.5683 11.3782C79.9837 11.3764 80.3989 11.3774 80.8143 11.3772H80.9173C80.9173 11.3364 80.9173 11.3048 80.9173 11.2731C80.9173 10.8315 80.916 10.39 80.9178 9.94843C80.9189 9.67376 81.0793 9.46581 81.3284 9.41293C81.3747 9.40317 81.4236 9.40333 81.4714 9.40317C81.9452 9.40252 82.4192 9.40268 82.893 9.40268C82.9218 9.40268 82.9504 9.40268 82.9839 9.40268V6.34576C82.0454 6.15539 81.3078 5.66106 80.8056 4.8291C80.4136 4.17954 80.2735 3.46718 80.3935 2.71593C80.6558 1.07365 82 -0.0564019 83.6303 0.0021753C85.1771 0.0578237 86.4098 1.24824 86.6137 2.75303C86.8517 4.51067 85.655 6.05044 84.0155 6.34755V9.40284H84.1122C84.586 9.40284 85.06 9.40219 85.5339 9.40301C85.87 9.40349 86.0815 9.6186 86.0825 9.96193C86.0837 10.398 86.0828 10.8342 86.0828 11.2703C86.0828 11.3022 86.0828 11.3341 86.0828 11.3772H86.1834C86.5988 11.3772 87.014 11.3767 87.4294 11.3772C87.7909 11.3777 87.9994 11.5894 87.9997 11.957C88.0004 12.5611 87.9997 13.1651 87.9997 13.7693C87.9997 13.7875 87.9997 14.1673 87.9997 14.5004C87.9997 14.7762 87.7802 14.9997 87.5094 14.9997H79.4905V15.0001ZM83.5004 5.35597C84.6683 5.35792 85.6195 4.39335 85.6224 3.20391C85.6254 2.0047 84.6793 1.03932 83.4995 1.03769C82.3302 1.03623 81.3816 1.99771 81.3774 3.18861C81.3733 4.38538 82.3221 5.35386 83.5004 5.35581V5.35597ZM80.0267 13.8697H86.9726C86.9746 13.8539 86.9771 13.8435 86.9771 13.8331C86.9774 13.3835 86.976 12.9339 86.9789 12.4845C86.9794 12.4108 86.9383 12.4176 86.8921 12.4176C84.6299 12.4178 82.3676 12.4181 80.1054 12.4163C80.0382 12.4163 80.0207 12.4365 80.0212 12.5032C80.0239 12.9337 80.0225 13.3643 80.0228 13.795C80.0228 13.8188 80.0252 13.8427 80.0267 13.8698V13.8697ZM85.0797 10.4493H81.945V11.3725H85.0797V10.4493Z" fill="#191F3E"/>
<path opacity="0.9" d="M100.89 9.45H97.85L97.29 11H96.33L98.85 4.07H99.9L102.41 11H101.45L100.89 9.45ZM100.63 8.71L99.37 5.19L98.11 8.71H100.63ZM108.168 5.52V11H107.258V10.19C107.085 10.47 106.842 10.69 106.528 10.85C106.222 11.0033 105.882 11.08 105.508 11.08C105.082 11.08 104.698 10.9933 104.358 10.82C104.018 10.64 103.748 10.3733 103.548 10.02C103.355 9.66667 103.258 9.23667 103.258 8.73V5.52H104.158V8.61C104.158 9.15 104.295 9.56667 104.568 9.86C104.842 10.1467 105.215 10.29 105.688 10.29C106.175 10.29 106.558 10.14 106.838 9.84C107.118 9.54 107.258 9.10333 107.258 8.53V5.52H108.168ZM110.615 6.27V9.5C110.615 9.76667 110.671 9.95667 110.785 10.07C110.898 10.1767 111.095 10.23 111.375 10.23H112.045V11H111.225C110.718 11 110.338 10.8833 110.085 10.65C109.831 10.4167 109.705 10.0333 109.705 9.5V6.27H108.995V5.52H109.705V4.14H110.615V5.52H112.045V6.27H110.615ZM115.337 11.09C114.824 11.09 114.357 10.9733 113.937 10.74C113.524 10.5067 113.197 10.1767 112.957 9.75C112.724 9.31667 112.607 8.81667 112.607 8.25C112.607 7.69 112.727 7.19667 112.967 6.77C113.214 6.33667 113.547 6.00667 113.967 5.78C114.387 5.54667 114.857 5.43 115.377 5.43C115.897 5.43 116.367 5.54667 116.787 5.78C117.207 6.00667 117.537 6.33333 117.777 6.76C118.024 7.18667 118.147 7.68333 118.147 8.25C118.147 8.81667 118.021 9.31667 117.767 9.75C117.521 10.1767 117.184 10.5067 116.757 10.74C116.331 10.9733 115.857 11.09 115.337 11.09ZM115.337 10.29C115.664 10.29 115.971 10.2133 116.257 10.06C116.544 9.90667 116.774 9.67667 116.947 9.37C117.127 9.06333 117.217 8.69 117.217 8.25C117.217 7.81 117.131 7.43667 116.957 7.13C116.784 6.82333 116.557 6.59667 116.277 6.45C115.997 6.29667 115.694 6.22 115.367 6.22C115.034 6.22 114.727 6.29667 114.447 6.45C114.174 6.59667 113.954 6.82333 113.787 7.13C113.621 7.43667 113.537 7.81 113.537 8.25C113.537 8.69667 113.617 9.07333 113.777 9.38C113.944 9.68667 114.164 9.91667 114.437 10.07C114.711 10.2167 115.011 10.29 115.337 10.29ZM125.734 5.42C126.16 5.42 126.54 5.51 126.874 5.69C127.207 5.86333 127.47 6.12667 127.664 6.48C127.857 6.83333 127.954 7.26333 127.954 7.77V11H127.054V7.9C127.054 7.35333 126.917 6.93667 126.644 6.65C126.377 6.35667 126.014 6.21 125.554 6.21C125.08 6.21 124.704 6.36333 124.424 6.67C124.144 6.97 124.004 7.40667 124.004 7.98V11H123.104V7.9C123.104 7.35333 122.967 6.93667 122.694 6.65C122.427 6.35667 122.064 6.21 121.604 6.21C121.13 6.21 120.754 6.36333 120.474 6.67C120.194 6.97 120.054 7.40667 120.054 7.98V11H119.144V5.52H120.054V6.31C120.234 6.02333 120.474 5.80333 120.774 5.65C121.08 5.49667 121.417 5.42 121.784 5.42C122.244 5.42 122.65 5.52333 123.004 5.73C123.357 5.93667 123.62 6.24 123.794 6.64C123.947 6.25333 124.2 5.95333 124.554 5.74C124.907 5.52667 125.3 5.42 125.734 5.42ZM128.907 8.24C128.907 7.68 129.02 7.19 129.247 6.77C129.473 6.34333 129.783 6.01333 130.177 5.78C130.577 5.54667 131.02 5.43 131.507 5.43C131.987 5.43 132.403 5.53333 132.757 5.74C133.11 5.94667 133.373 6.20667 133.547 6.52V5.52H134.467V11H133.547V9.98C133.367 10.3 133.097 10.5667 132.737 10.78C132.383 10.9867 131.97 11.09 131.497 11.09C131.01 11.09 130.57 10.97 130.177 10.73C129.783 10.49 129.473 10.1533 129.247 9.72C129.02 9.28667 128.907 8.79333 128.907 8.24ZM133.547 8.25C133.547 7.83667 133.463 7.47667 133.297 7.17C133.13 6.86333 132.903 6.63 132.617 6.47C132.337 6.30333 132.027 6.22 131.687 6.22C131.347 6.22 131.037 6.3 130.757 6.46C130.477 6.62 130.253 6.85333 130.087 7.16C129.92 7.46667 129.837 7.82667 129.837 8.24C129.837 8.66 129.92 9.02667 130.087 9.34C130.253 9.64667 130.477 9.88333 130.757 10.05C131.037 10.21 131.347 10.29 131.687 10.29C132.027 10.29 132.337 10.21 132.617 10.05C132.903 9.88333 133.13 9.64667 133.297 9.34C133.463 9.02667 133.547 8.66333 133.547 8.25ZM136.914 6.27V9.5C136.914 9.76667 136.971 9.95667 137.084 10.07C137.198 10.1767 137.394 10.23 137.674 10.23H138.344V11H137.524C137.018 11 136.638 10.8833 136.384 10.65C136.131 10.4167 136.004 10.0333 136.004 9.5V6.27H135.294V5.52H136.004V4.14H136.914V5.52H138.344V6.27H136.914ZM139.717 4.63C139.544 4.63 139.397 4.57 139.277 4.45C139.157 4.33 139.097 4.18333 139.097 4.01C139.097 3.83667 139.157 3.69 139.277 3.57C139.397 3.45 139.544 3.39 139.717 3.39C139.884 3.39 140.024 3.45 140.137 3.57C140.257 3.69 140.317 3.83667 140.317 4.01C140.317 4.18333 140.257 4.33 140.137 4.45C140.024 4.57 139.884 4.63 139.717 4.63ZM140.157 5.52V11H139.247V5.52H140.157ZM141.168 8.25C141.168 7.68333 141.281 7.19 141.508 6.77C141.735 6.34333 142.048 6.01333 142.448 5.78C142.855 5.54667 143.318 5.43 143.838 5.43C144.511 5.43 145.065 5.59333 145.498 5.92C145.938 6.24667 146.228 6.7 146.368 7.28H145.388C145.295 6.94667 145.111 6.68333 144.838 6.49C144.571 6.29667 144.238 6.2 143.838 6.2C143.318 6.2 142.898 6.38 142.578 6.74C142.258 7.09333 142.098 7.59667 142.098 8.25C142.098 8.91 142.258 9.42 142.578 9.78C142.898 10.14 143.318 10.32 143.838 10.32C144.238 10.32 144.571 10.2267 144.838 10.04C145.105 9.85333 145.288 9.58667 145.388 9.24H146.368C146.221 9.8 145.928 10.25 145.488 10.59C145.048 10.9233 144.498 11.09 143.838 11.09C143.318 11.09 142.855 10.9733 142.448 10.74C142.048 10.5067 141.735 10.1767 141.508 9.75C141.281 9.32333 141.168 8.82333 141.168 8.25Z" fill="black"/>
<path d="M7.90817 3.40068V4.43109C8.17597 4.43109 8.43664 4.42473 8.69691 4.43228C9.41752 4.45295 10.0339 4.93636 10.2071 5.6392C10.2827 5.9457 10.3128 6.26413 10.358 6.57779C10.5426 7.85785 10.7355 9.13713 10.9019 10.42C10.9455 10.7555 11.0513 10.9825 11.3405 11.196C12.046 11.7171 12.1969 12.7289 11.7378 13.4826C11.5754 13.7489 11.4066 14.0113 11.2343 14.2713C11.1551 14.3906 11.0651 14.5039 10.9712 14.6116C10.7367 14.8803 10.4471 15.0012 10.0823 15C7.37851 14.992 4.67435 14.992 1.97058 14.9988C1.46905 15 1.09706 14.812 0.837974 14.379C0.65495 14.0733 0.445383 13.7835 0.259982 13.479C-0.260566 12.6235 0.0258543 11.5096 0.893435 11.0167C0.98059 10.9674 1.0206 10.9117 1.03407 10.8151C1.19412 9.67658 1.35694 8.53843 1.51976 7.40029C1.59701 6.86083 1.66911 6.32018 1.75547 5.78192C1.87749 5.02342 2.53748 4.45057 3.30246 4.43109C3.55877 4.42473 3.81508 4.4299 4.08328 4.4299V3.39988C4.01435 3.38318 3.93829 3.36728 3.86421 3.34582C3.10438 3.12638 2.711 2.24384 3.05605 1.52987C3.18322 1.2667 3.31117 1.00393 3.45022 0.747121C3.7101 0.266499 4.12131 0.0132685 4.66484 0.00730549C5.5546 -0.00223538 6.44437 -0.00263292 7.33414 0.00730549C7.87766 0.0136661 8.28808 0.268487 8.54756 0.750698C8.68344 1.00353 8.81021 1.26153 8.9354 1.51993C9.30541 2.28519 8.85815 3.19435 8.02741 3.37046C7.98898 3.37881 7.95095 3.38954 7.90856 3.40028L7.90817 3.40068ZM9.14298 5.35894C8.94887 5.22139 8.75435 5.18402 8.54756 5.18442C7.58411 5.18522 6.62066 5.18442 5.65721 5.18442C4.916 5.18442 4.17519 5.18442 3.43398 5.18442C3.22917 5.18442 3.03545 5.2194 2.85758 5.36252C3.22996 5.62807 3.54411 5.93338 3.80716 6.28957C4.63037 7.40665 4.99404 8.68433 5.07169 10.0503C5.10814 10.6931 5.08754 11.3391 5.09269 11.9839C5.09308 12.0415 5.09269 12.0996 5.09269 12.1644H6.90193C6.90193 12.0884 6.90114 12.0205 6.90193 11.9525C6.91382 11.0461 6.85677 10.1373 7.00572 9.23611C7.17409 8.21683 7.50211 7.25996 8.1003 6.40844C8.38395 6.00454 8.72385 5.6559 9.14298 5.35894ZM5.99949 14.2316C7.36345 14.2316 8.72742 14.2308 10.0914 14.2331C10.2336 14.2331 10.358 14.2077 10.44 14.0817C10.6674 13.7334 10.9079 13.3928 11.1162 13.0334C11.4787 12.4085 10.9914 11.5557 10.28 11.5442C10.1437 11.5422 10.0438 11.5891 9.96936 11.7056C9.84656 11.8976 9.71979 12.0868 9.59143 12.2749C9.28639 12.7209 8.89657 13.0044 8.32373 12.9336C8.2655 12.9264 8.20528 12.9328 8.14586 12.9328C6.60877 12.9328 5.07169 12.9312 3.535 12.9336C3.07863 12.9344 2.72447 12.7523 2.47014 12.3723C2.33227 12.1664 2.19441 11.9608 2.05615 11.7557C1.9175 11.5498 1.79271 11.5033 1.54907 11.5665C0.839162 11.7509 0.53848 12.5066 0.931466 13.128C1.11647 13.421 1.31574 13.7052 1.49599 14.001C1.60137 14.1739 1.73725 14.2359 1.93651 14.2351C3.29057 14.2292 4.64463 14.232 5.99909 14.232L5.99949 14.2316ZM10.1932 10.7877C9.9662 9.19636 9.74237 7.62569 9.51497 6.03078C9.43931 6.08961 9.38068 6.12658 9.33235 6.17429C9.18814 6.3166 9.03444 6.45216 8.90767 6.60959C8.13556 7.57043 7.78853 8.69904 7.69781 9.90596C7.64274 10.6362 7.67008 11.3733 7.66096 12.1071C7.66096 12.1254 7.6673 12.1441 7.67285 12.1747C7.93312 12.1747 8.18944 12.1671 8.44496 12.1771C8.626 12.1842 8.76545 12.1171 8.86805 11.9779C8.99086 11.8106 9.10812 11.638 9.21627 11.4611C9.43772 11.0986 9.71226 10.8163 10.1932 10.7885V10.7877ZM1.80182 10.7869C2.2887 10.8135 2.56204 11.1053 2.78587 11.4711C2.88927 11.6396 2.99504 11.809 3.11904 11.962C3.18718 12.0463 3.29176 12.1473 3.38684 12.1548C3.69861 12.1791 4.01356 12.164 4.33326 12.164C4.33326 11.5852 4.3392 11.0199 4.33167 10.455C4.32137 9.68652 4.20252 8.93478 3.95097 8.20769C3.69029 7.45316 3.3191 6.76582 2.71932 6.22279C2.64841 6.15839 2.57076 6.10194 2.48044 6.02919C2.25225 7.62887 2.02842 9.19715 1.80182 10.7873V10.7869ZM5.9979 2.64774C6.58104 2.64774 7.16379 2.65052 7.74693 2.64655C8.11179 2.64416 8.4093 2.28916 8.28214 1.96279C8.15061 1.62448 7.96363 1.30645 7.78179 0.990413C7.70415 0.85525 7.56153 0.772165 7.39633 0.771768C6.4725 0.76978 5.54866 0.769383 4.62483 0.773358C4.42913 0.774153 4.26155 0.864791 4.16647 1.03255C4.01277 1.30288 3.86143 1.57837 3.74813 1.86698C3.57779 2.2999 3.83133 2.64695 4.29364 2.64774C4.86173 2.64893 5.42981 2.64774 5.9983 2.64774H5.9979ZM7.14596 4.42155C7.14596 4.12578 7.13962 3.84472 7.14874 3.56406C7.1527 3.43844 7.1115 3.40624 6.99027 3.40704C6.32948 3.4122 5.6683 3.40942 5.00751 3.40982C4.95997 3.40982 4.91204 3.41459 4.86173 3.41697V4.42115H7.14636L7.14596 4.42155Z" fill="black"/>
<path opacity="0.9" d="M24.65 5.49C24.5033 4.75 24.0467 4.38 23.28 4.38C22.6867 4.38 22.2433 4.61 21.95 5.07C21.6567 5.52333 21.5133 6.27333 21.52 7.32C21.6733 6.97333 21.9267 6.70333 22.28 6.51C22.64 6.31 23.04 6.21 23.48 6.21C24.1667 6.21 24.7133 6.42333 25.12 6.85C25.5333 7.27667 25.74 7.86667 25.74 8.62C25.74 9.07333 25.65 9.48 25.47 9.84C25.2967 10.2 25.03 10.4867 24.67 10.7C24.3167 10.9133 23.8867 11.02 23.38 11.02C22.6933 11.02 22.1567 10.8667 21.77 10.56C21.3833 10.2533 21.1133 9.83 20.96 9.29C20.8067 8.75 20.73 8.08333 20.73 7.29C20.73 4.84333 21.5833 3.62 23.29 3.62C23.9433 3.62 24.4567 3.79667 24.83 4.15C25.2033 4.50333 25.4233 4.95 25.49 5.49H24.65ZM23.29 6.98C23.0033 6.98 22.7333 7.04 22.48 7.16C22.2267 7.27333 22.02 7.45 21.86 7.69C21.7067 7.92333 21.63 8.21 21.63 8.55C21.63 9.05667 21.7767 9.47 22.07 9.79C22.3633 10.1033 22.7833 10.26 23.33 10.26C23.7967 10.26 24.1667 10.1167 24.44 9.83C24.72 9.53667 24.86 9.14333 24.86 8.65C24.86 8.13 24.7267 7.72333 24.46 7.43C24.1933 7.13 23.8033 6.98 23.29 6.98ZM34.0437 6.07C34.0437 6.65 33.8437 7.13333 33.4437 7.52C33.0503 7.9 32.447 8.09 31.6337 8.09H30.2937V11H29.3837V4.03H31.6337C32.4203 4.03 33.017 4.22 33.4237 4.6C33.837 4.98 34.0437 5.47 34.0437 6.07ZM31.6337 7.34C32.1403 7.34 32.5137 7.23 32.7537 7.01C32.9937 6.79 33.1137 6.47667 33.1137 6.07C33.1137 5.21 32.6203 4.78 31.6337 4.78H30.2937V7.34H31.6337ZM39.9747 8.05C39.9747 8.22333 39.9647 8.40667 39.9447 8.6H35.5647C35.598 9.14 35.7814 9.56333 36.1147 9.87C36.4547 10.17 36.8647 10.32 37.3447 10.32C37.738 10.32 38.0647 10.23 38.3247 10.05C38.5914 9.86333 38.778 9.61667 38.8847 9.31H39.8647C39.718 9.83667 39.4247 10.2667 38.9847 10.6C38.5447 10.9267 37.998 11.09 37.3447 11.09C36.8247 11.09 36.358 10.9733 35.9447 10.74C35.538 10.5067 35.218 10.1767 34.9847 9.75C34.7514 9.31667 34.6347 8.81667 34.6347 8.25C34.6347 7.68333 34.748 7.18667 34.9747 6.76C35.2014 6.33333 35.518 6.00667 35.9247 5.78C36.338 5.54667 36.8114 5.43 37.3447 5.43C37.8647 5.43 38.3247 5.54333 38.7247 5.77C39.1247 5.99667 39.4314 6.31 39.6447 6.71C39.8647 7.10333 39.9747 7.55 39.9747 8.05ZM39.0347 7.86C39.0347 7.51333 38.958 7.21667 38.8047 6.97C38.6514 6.71667 38.4414 6.52667 38.1747 6.4C37.9147 6.26667 37.6247 6.2 37.3047 6.2C36.8447 6.2 36.4514 6.34667 36.1247 6.64C35.8047 6.93333 35.6214 7.34 35.5747 7.86H39.0347ZM43.3659 11.09C42.8525 11.09 42.3859 10.9733 41.9659 10.74C41.5525 10.5067 41.2259 10.1767 40.9859 9.75C40.7525 9.31667 40.6359 8.81667 40.6359 8.25C40.6359 7.69 40.7559 7.19667 40.9959 6.77C41.2425 6.33667 41.5759 6.00667 41.9959 5.78C42.4159 5.54667 42.8859 5.43 43.4059 5.43C43.9259 5.43 44.3959 5.54667 44.8159 5.78C45.2359 6.00667 45.5659 6.33333 45.8059 6.76C46.0525 7.18667 46.1759 7.68333 46.1759 8.25C46.1759 8.81667 46.0492 9.31667 45.7959 9.75C45.5492 10.1767 45.2125 10.5067 44.7859 10.74C44.3592 10.9733 43.8859 11.09 43.3659 11.09ZM43.3659 10.29C43.6925 10.29 43.9992 10.2133 44.2859 10.06C44.5725 9.90667 44.8025 9.67667 44.9759 9.37C45.1559 9.06333 45.2459 8.69 45.2459 8.25C45.2459 7.81 45.1592 7.43667 44.9859 7.13C44.8125 6.82333 44.5859 6.59667 44.3059 6.45C44.0259 6.29667 43.7225 6.22 43.3959 6.22C43.0625 6.22 42.7559 6.29667 42.4759 6.45C42.2025 6.59667 41.9825 6.82333 41.8159 7.13C41.6492 7.43667 41.5659 7.81 41.5659 8.25C41.5659 8.69667 41.6459 9.07333 41.8059 9.38C41.9725 9.68667 42.1925 9.91667 42.4659 10.07C42.7392 10.2167 43.0392 10.29 43.3659 10.29ZM48.0823 6.53C48.2623 6.21667 48.529 5.95667 48.8823 5.75C49.2423 5.53667 49.659 5.43 50.1323 5.43C50.619 5.43 51.059 5.54667 51.4523 5.78C51.8523 6.01333 52.1657 6.34333 52.3923 6.77C52.619 7.19 52.7323 7.68 52.7323 8.24C52.7323 8.79333 52.619 9.28667 52.3923 9.72C52.1657 10.1533 51.8523 10.49 51.4523 10.73C51.059 10.97 50.619 11.09 50.1323 11.09C49.6657 11.09 49.2523 10.9867 48.8923 10.78C48.539 10.5667 48.269 10.3033 48.0823 9.99V13.6H47.1723V5.52H48.0823V6.53ZM51.8023 8.24C51.8023 7.82667 51.719 7.46667 51.5523 7.16C51.3857 6.85333 51.159 6.62 50.8723 6.46C50.5923 6.3 50.2823 6.22 49.9423 6.22C49.609 6.22 49.299 6.30333 49.0123 6.47C48.7323 6.63 48.5057 6.86667 48.3323 7.18C48.1657 7.48667 48.0823 7.84333 48.0823 8.25C48.0823 8.66333 48.1657 9.02667 48.3323 9.34C48.5057 9.64667 48.7323 9.88333 49.0123 10.05C49.299 10.21 49.609 10.29 49.9423 10.29C50.2823 10.29 50.5923 10.21 50.8723 10.05C51.159 9.88333 51.3857 9.64667 51.5523 9.34C51.719 9.02667 51.8023 8.66 51.8023 8.24ZM54.6402 3.6V11H53.7302V3.6H54.6402ZM60.9911 8.05C60.9911 8.22333 60.9811 8.40667 60.9611 8.6H56.5811C56.6144 9.14 56.7978 9.56333 57.1311 9.87C57.4711 10.17 57.8811 10.32 58.3611 10.32C58.7544 10.32 59.0811 10.23 59.3411 10.05C59.6078 9.86333 59.7944 9.61667 59.9011 9.31H60.8811C60.7344 9.83667 60.4411 10.2667 60.0011 10.6C59.5611 10.9267 59.0144 11.09 58.3611 11.09C57.8411 11.09 57.3744 10.9733 56.9611 10.74C56.5544 10.5067 56.2344 10.1767 56.0011 9.75C55.7678 9.31667 55.6511 8.81667 55.6511 8.25C55.6511 7.68333 55.7644 7.18667 55.9911 6.76C56.2178 6.33333 56.5344 6.00667 56.9411 5.78C57.3544 5.54667 57.8278 5.43 58.3611 5.43C58.8811 5.43 59.3411 5.54333 59.7411 5.77C60.1411 5.99667 60.4478 6.31 60.6611 6.71C60.8811 7.10333 60.9911 7.55 60.9911 8.05ZM60.0511 7.86C60.0511 7.51333 59.9744 7.21667 59.8211 6.97C59.6678 6.71667 59.4578 6.52667 59.1911 6.4C58.9311 6.26667 58.6411 6.2 58.3211 6.2C57.8611 6.2 57.4678 6.34667 57.1411 6.64C56.8211 6.93333 56.6378 7.34 56.5911 7.86H60.0511Z" fill="black"/>
</svg>
